<svg height="512pt" viewBox="-34 0 512 512" width="512pt" xmlns="http://www.w3.org/2000/svg">
<defs>
    <style>
    .logo-body, .within-hashtag {
        fill: #FFFFFF;
    }
    .hashtag, .smile {
        fill: #2b2121;
    }
    </style>
</defs>
<path class="logo-body" d="m346.359375 0h-249.695313c-53.386718 0-96.664062 43.515625-96.664062 97.191406v251.0625c0 53.671875 43.273438 97.1875 96.664062 97.1875h83.105469l41.3125 66.558594 41.324219-66.558594h83.953125c53.382813 0 96.667969-43.515625 96.667969-97.1875v-251.066406c0-53.671875-43.285156-97.1875-96.667969-97.1875zm0 0" fill="#00a0e9"/>
<path class="hashtag" d="m168.097656 246.980469h36.492188v-36.027344h33.835937v36.027344h36.488281v-36.027344h35.824219v-36.683594h-35.824219v-34.019531h35.824219v-36.6875h-35.824219v-36.023438h-36.488281v36.023438h-33.832031v-36.023438h-36.492188v36.023438h-35.832031v36.6875h35.832031v34.019531h-35.832031v36.683594h35.828125zm36.496094-106.730469h33.832031v34.019531h-33.832031zm0 0" fill="#fff"/>
<path class="smile" d="m384.066406 259.058594c-3.277344-2.167969-6.382812-3.242188-9.257812-3.578125-13.484375-1.484375-21.753906 7.546875-28.316406 17.84375-7.246094 11.363281-49.066407 61.136719-124.835938 63.042969-75.769531-1.90625-117.585938-51.679688-124.835938-63.042969-6.5625-10.296875-14.542968-19.3125-28.316406-17.84375-2.875.335937-5.976562 1.410156-9.257812 3.578125-5.898438 3.902344-8.144532 10.527344-7.949219 15.148437 0 6.402344 3.117187 12.34375 3.117187 12.34375s48.171876 91.21875 162.542969 91.21875c1.582031 0 3.144531-.019531 4.699219-.046875 1.554688.027344 3.117188.046875 4.703125.046875 114.371094 0 162.542969-91.21875 162.542969-91.21875s2.691406-3.898437 3.152344-12.351562c.210937-5.742188-2.089844-11.238281-7.988282-15.140625zm0 0" fill="#fff"/>
<path class="within-hashtag" d="m204.59375 140.25h33.832031v34.019531h-33.832031zm0 0" fill="#00a0e9"/>
</svg>