<svg viewBox="0 0 3000 3000" xmlns="http://www.w3.org/2000/svg" xmlns:xlink="http://www.w3.org/1999/xlink" xmlns:bx="https://boxy-svg.com">
  <defs>
    <style>
.circuit-end {
  fill: rgb(108, 228, 244);
}

.circuit {
  stroke: rgb(108, 228, 244);
  stroke-width: 32px;
  fill: none;
  stroke-linecap: round;
  stroke-linejoin: round;
}
    </style>
  </defs>
  <path class="circuit" d="M 1174.767 441.555 L 1024.577 702.06 L 479.643 703.389 L 322.809 962.565 L 100.848 963.894"></path>
  <path class="circuit" d="M 229.771 1040.982 L 389.264 1038.324 L 535.466 784.465 L 756.098 783.135"></path>
  <path class="circuit" d="M 870.401 783.135 L 1051.16 784.465 L 1255.842 445.542"></path>
  <path class="circuit" d="M 1322.297 444.213 L 1072.425 865.54 L 581.985 865.54 L 431.795 1124.716 L 277.619 1127.374"></path>
  <path class="circuit" d="M 1408.689 601.048 L 1323.627 601.048 L 1169.45 861.553"></path>
  <path class="circuit" d="M 1410.019 680.794 L 1348.88 683.452 L 1250.526 862.882"></path>
  <path class="circuit" d="M 1403.373 732.629 L 1326.285 864.211"></path>
  <circle class="circuit-end" cx="754" cy="780" r="32"></circle>
  <circle class="circuit-end" cx="754" cy="780" r="32" transform="matrix(1, 0, 0, 1, 117.730048, 5.793645)"></circle>
  <circle class="circuit-end" cx="754" cy="780" r="32" transform="matrix(1, 0, 0, 1, 415.450123, 84.210986)"></circle>
  <circle class="circuit-end" cx="754" cy="780" r="32" transform="matrix(1, 0, 0, 1, 497.854786, 84.210986)"></circle>
  <circle class="circuit-end" cx="754" cy="780" r="32" transform="matrix(1, 0, 0, 1, 572.284805, 82.881879)"></circle>
  <path class="circuit" d="M 2897.955 971.868 L 2747.765 711.363 L 2202.831 710.034 L 2045.997 450.858 L 1824.036 449.529" transform="matrix(-1, 0, 0, -1, 4721.991089, 1421.396973)"></path>
  <path class="circuit" d="M 2242.705 791.109 L 2402.198 793.767 L 2548.4 1047.626 L 2769.032 1048.956" transform="matrix(-1, 0, 0, -1, 5011.737061, 1840.065063)"></path>
  <path class="circuit" d="M 1742.961 454.847 L 1923.72 453.517 L 2128.402 792.44" transform="matrix(-1, 0, 0, -1, 3871.363159, 1245.957001)"></path>
  <path class="circuit" d="M 2721.184 1135.349 L 2471.312 714.022 L 1980.872 714.022 L 1830.682 454.846 L 1676.506 452.188" transform="matrix(-1, 0, 0, -1, 4397.690063, 1587.536987)"></path>
  <path class="circuit" d="M 1829.353 869.528 L 1744.291 869.528 L 1590.114 609.023" transform="matrix(-1, 0, 0, -1, 3419.467041, 1478.551025)"></path>
  <path class="circuit" d="M 1748.277 870.857 L 1687.138 868.199 L 1588.784 688.769" transform="matrix(-1, 0, 0, -1, 3337.061035, 1559.625977)"></path>
  <path class="circuit" d="M 1672.518 872.186 L 1595.43 740.604" transform="matrix(-1, 0, 0, -1, 3267.947998, 1612.789978)"></path>
  <circle class="circuit-end" cx="-2244.803" cy="787.974" r="32" transform="matrix(-1, 0, 0, 1, 0, 0)"></circle>
  <circle class="circuit-end" cx="-2127.073" cy="793.769" r="32" transform="matrix(-1, 0, 0, 1, 0, 0)"></circle>
  <circle class="circuit-end" cx="-1829.353" cy="872.186" r="32" transform="matrix(-1, 0, 0, 1, 0, 0)"></circle>
  <circle class="circuit-end" cx="-1746.948" cy="872.186" r="32" transform="matrix(-1, 0, 0, 1, 0, 0)"></circle>
  <circle class="circuit-end" cx="-1672.518" cy="870.856" r="32" transform="matrix(-1, 0, 0, 1, 0, 0)"></circle>
  <path class="circuit" d="M 660.403 1018.389 L 514.201 1269.59 L 358.695 1269.59"></path>
  <path class="circuit" d="M 746.795 1018.389 L 560.72 1346.679 L 373.315 1348.008"></path>
  <path class="circuit" d="M 834.516 1013.072 L 616.542 1426.425 L 409.201 1430.412"></path>
  <path class="circuit" d="M 955.465 1014.401 L 1407.362 1014.401"></path>
  <path class="circuit" d="M 1586.792 1014.401"></path>
  <path class="circuit" d="M 1586.792 1092.819 L 2073.246 1092.819 L 2220.777 1349.337"></path>
  <path class="circuit" d="M 1259.831 1213.768 L 1060.465 1213.768 L 971.414 1354.653"></path>
  <path class="circuit" d="M 1259.831 1153.958 L 996.667 1155.287 L 873.06 1349.337"></path>
  <circle class="circuit-end" cx="754" cy="780" r="32" transform="matrix(1, 0, 0, 1, 1466.776775, 568.007729)"></circle>
  <circle class="circuit-end" cx="754" cy="780" r="32" transform="matrix(1, 0, 0, 1, 120.389302, 569.336838)"></circle>
  <circle class="circuit-end" cx="754" cy="780" r="32" transform="matrix(1, 0, 0, 1, 218.743373, 573.324166)"></circle>
  <circle class="circuit-end" cx="754" cy="780" r="32" transform="matrix(1, 0, 0, 1, -379.355702, 569.336838)"></circle>
  <circle class="circuit-end" cx="754" cy="780" r="32" transform="matrix(1, 0, 0, 1, -7.205167, 237.059575)"></circle>
  <circle class="circuit-end" cx="754" cy="780" r="32" transform="matrix(1, 0, 0, 1, -344.798867, 651.7416)"></circle>
  <circle class="circuit-end" cx="754" cy="780" r="32" transform="matrix(1, 0, 0, 1, 79.186922, 237.059575)"></circle>
  <path class="circuit" d="M 2640.111 1268.261 L 2493.909 1017.06 L 2338.403 1017.06" transform="matrix(-1, 0, 0, -1, 4978.51416, 2285.320984)"></path>
  <path class="circuit" d="M 2625.491 1346.679 L 2439.416 1018.389 L 2252.011 1017.06" transform="matrix(-1, 0, 0, -1, 4877.501953, 2363.738953)"></path>
  <path class="circuit" d="M 2589.605 1429.083 L 2371.631 1015.73 L 2164.29 1011.743" transform="matrix(-1, 0, 0, -1, 4753.89502, 2440.825989)"></path>
  <path class="circuit" d="M 1591.444 1013.072 L 2043.341 1013.072" transform="matrix(-1, 0, 0, -1, 3634.784912, 2026.144043)"></path>
  <path class="circuit" d="M 778.029 1348.008 L 1264.483 1348.008 L 1412.014 1091.49" transform="matrix(-1, 0, 0, -1, 2190.04303, 2439.498047)"></path>
  <path class="circuit" d="M 2125.746 1348.008 L 1862.582 1346.679 L 1738.975 1152.629" transform="matrix(-1, 0, 0, -1, 3864.721069, 2500.637085)"></path>
  <circle class="circuit-end" cx="-778.029" cy="1346.679" r="32" transform="matrix(-1, 0, 0, 1, 0, 0)"></circle>
  <circle class="circuit-end" cx="-2124.416" cy="1348.008" r="32" transform="matrix(-1, 0, 0, 1, 0, 0)"></circle>
  <circle class="circuit-end" cx="-2026.062" cy="1351.995" r="32" transform="matrix(-1, 0, 0, 1, 0, 0)"></circle>
  <circle class="circuit-end" cx="-2624.161" cy="1348.008" r="32" transform="matrix(-1, 0, 0, 1, 0, 0)"></circle>
  <circle class="circuit-end" cx="-2252.011" cy="1015.731" r="32" transform="matrix(-1, 0, 0, 1, 0, 0)"></circle>
  <circle class="circuit-end" cx="-2589.605" cy="1430.413" r="32" transform="matrix(-1, 0, 0, 1, 0, 0)"></circle>
  <path class="circuit" d="M 2026.065 1354.654 L 1826.699 1354.654 L 1737.648 1213.769" transform="matrix(-1, 0, 0, -1, 3763.712891, 2568.423096)"></path>
  <path class="circuit" d="M 2145.491 2015.013 L 2345.623 2011.307 L 2582.817 1597.454" transform="matrix(-1, 0, 0, -1, 4728.307861, 3612.466919)"></path>
  <path class="circuit" d="M 2329.563 2011.307 L 2413.569 2010.072 L 2561.815 1759.289" transform="matrix(-1, 0, 0, -1, 4891.37793, 3770.595947)"></path>
  <path class="circuit" d="M 2235.675 2002.659 L 2388.862 2001.423 L 2575.405 1682.695" transform="matrix(-1, 0, 0, -1, 4811.080078, 3685.354004)"></path>
  <path class="circuit" d="M 368.564 1905.383 L 446.393 1905.383 L 592.168 2161.107 L 760.18 2162.343"></path>
  <path class="circuit" d="M 784.887 1683.015"></path>
  <path class="circuit" d="M 1585.865 1939.653 L 1736.581 1686.4 L 2215.909 1683.929" transform="matrix(-1, 0, 0, -1, 3801.773926, 3623.581909)"></path>
  <circle class="circuit-end" cx="-2565.522" cy="1759.287" r="32" transform="matrix(-1, 0, 0, 1, 0, 0)"></circle>
  <circle class="circuit-end" cx="-2332.035" cy="2011.305" r="32" transform="matrix(-1, 0, 0, 1, 0, 0)"></circle>
  <circle class="circuit-end" cx="-2214.674" cy="1686.399" r="32" transform="matrix(-1, 0, 0, 1, 0, 0)"></circle>
  <circle class="circuit-end" cx="-2144.257" cy="2013.775" r="32" transform="matrix(-1, 0, 0, 1, 0, 0)"></circle>
  <circle class="circuit-end" cx="-2565.522" cy="1759.287" r="32" transform="matrix(-1, 0, 0, 1, 17.367251, -165.27338)"></circle>
  <path class="circuit" d="M 1404.425 2437.422 L 1319.363 2437.422 L 1165.186 2176.917"></path>
  <path class="circuit" d="M 1405.755 2357.676 L 1344.616 2355.018 L 1246.262 2175.588"></path>
  <path class="circuit" d="M 1399.109 2305.841 L 1322.021 2174.259"></path>
  <circle class="circuit-end" cx="1165.186" cy="-2174.259" r="32" transform="matrix(1, 0, 0, -1, 0, 0)"></circle>
  <circle class="circuit-end" cx="1247.591" cy="-2174.259" r="32" transform="matrix(1, 0, 0, -1, 0, 0)"></circle>
  <circle class="circuit-end" cx="1322.021" cy="-2175.588" r="32" transform="matrix(1, 0, 0, -1, 0, 0)"></circle>
  <path class="circuit" d="M 1825.09 2168.942 L 1740.028 2168.942 L 1585.851 2429.447" transform="matrix(-1, 0, 0, -1, 3410.940918, 4598.388916)"></path>
  <path class="circuit" d="M 1744.014 2167.613 L 1682.875 2170.271 L 1584.521 2349.701" transform="matrix(-1, 0, 0, -1, 3328.535034, 4517.313965)"></path>
  <path class="circuit" d="M 1668.254 2166.284 L 1591.166 2297.866" transform="matrix(-1, 0, 0, -1, 3259.420044, 4464.149902)"></path>
  <circle class="circuit-end" cx="-1825.089" cy="-2166.284" r="32" transform="matrix(-1, 0, 0, -1, 0, 0)"></circle>
  <circle class="circuit-end" cx="-1742.684" cy="-2166.284" r="32" transform="matrix(-1, 0, 0, -1, 0, 0)"></circle>
  <circle class="circuit-end" cx="-1668.254" cy="-2167.614" r="32" transform="matrix(-1, 0, 0, -1, 0, 0)"></circle>
  <path class="circuit" d="M 949.568 2018.795 L 1401.465 2018.795"></path>
  <path class="circuit" d="M 1585.547 2017.466 L 2037.444 2017.466" transform="matrix(-1, 0, 0, -1, 3622.990967, 4034.931885)"></path>
  <path class="circuit" d="M 774.325 1684.652 L 925.041 1937.905 L 1404.369 1940.376"></path>
  <circle class="circuit-end" cx="775.56" cy="1687.122" r="32"></circle>
  <path class="circuit" d="M 1258.831 1823.573 L 1059.465 1823.573 L 970.414 1682.688"></path>
  <path class="circuit" d="M 1258.831 1883.383 L 995.667 1882.054 L 872.06 1688.004"></path>
  <circle class="circuit-end" cx="873.389" cy="-1688.004" r="32" transform="matrix(1, 0, 0, -1, 0, 0)"></circle>
  <circle class="circuit-end" cx="971.743" cy="-1684.017" r="32" transform="matrix(1, 0, 0, -1, 0, 0)"></circle>
  <path class="circuit" d="M 2124.746 1689.333 L 1861.582 1690.662 L 1737.975 1884.712" transform="matrix(-1, 0, 0, -1, 3862.721069, 3574.045044)"></path>
  <circle class="circuit-end" cx="-2123.416" cy="-1689.333" r="32" transform="matrix(-1, 0, 0, -1, 0, 0)"></circle>
  <circle class="circuit-end" cx="-2025.062" cy="-1685.346" r="32" transform="matrix(-1, 0, 0, -1, 0, 0)"></circle>
  <path class="circuit" d="M 2025.065 1682.687 L 1825.699 1682.687 L 1736.648 1823.572" transform="matrix(-1, 0, 0, -1, 3761.712891, 3506.259033)"></path>
  <path class="circuit" d="M -356.54 1735.84"></path>
  <path class="circuit" d="M 320.395 1995.005 L 398.474 1993.532 L 547.941 2247.898 L 765.259 2251.551"></path>
  <path class="circuit" d="M 269.446 2068.018 L 338.841 2068.018 L 482.198 2318.207 L 766.172 2321.859"></path>
  <path class="circuit" d="M 875.744 2164.806 L 1086.67 2164.806 L 1325.582 2577.461"></path>
  <path class="circuit" d="M 882.53 2243.259 L 1062.812 2244.109 L 1258.401 2578.312"></path>
  <path class="circuit" d="M 1181.866 2578.312 L 1035.599 2326.597 L 885.931 2324.896"></path>
  <circle class="circuit-end" cx="1165.186" cy="-2174.259" r="32" transform="matrix(1, 0, 0, -1, -289.459507, -7.534871)"></circle>
  <circle class="circuit-end" cx="1165.186" cy="-2174.259" r="32" transform="matrix(1, 0, 0, -1, -280.105243, 151.487617)"></circle>
  <circle class="circuit-end" cx="1165.186" cy="-2174.259" r="32" transform="matrix(1, 0, 0, -1, -399.159512, 148.086066)"></circle>
  <circle class="circuit-end" cx="1165.186" cy="-2174.259" r="32" transform="matrix(1, 0, 0, -1, -399.159512, 75.803117)"></circle>
  <circle class="circuit-end" cx="1165.186" cy="-2174.259" r="32" transform="matrix(1, 0, 0, -1, -843.912244, -180.163561)"></circle>
  <circle class="circuit-end" cx="1165.186" cy="-2174.259" r="32" transform="matrix(1, 0, 0, -1, -895.78589, -105.329449)"></circle>
  <path class="circuit" d="M 2233.337 2160.251 L 2311.166 2160.251 L 2456.941 1904.527 L 2624.953 1903.291" transform="matrix(-1, 0, 0, -1, 4858.289795, 4063.541992)"></path>
  <path class="circuit" d="M 2228.26 2247.986 L 2306.339 2249.459 L 2455.806 1995.093 L 2673.124 1991.44" transform="matrix(-1, 0, 0, -1, 4901.384033, 4240.898926)"></path>
  <path class="circuit" d="M 2227.345 2319.767 L 2296.74 2319.767 L 2440.097 2069.578 L 2724.071 2065.926" transform="matrix(-1, 0, 0, -1, 4951.416016, 4385.693115)"></path>
  <path class="circuit" d="M 1667.936 2575.368 L 1878.862 2575.368 L 2117.774 2162.713" transform="matrix(-1, 0, 0, -1, 3785.709961, 4738.080811)"></path>
  <path class="circuit" d="M 1735.117 2576.22 L 1915.399 2575.37 L 2110.988 2241.167" transform="matrix(-1, 0, 0, -1, 3846.10498, 4817.386963)"></path>
  <path class="circuit" d="M 2107.587 2322.804 L 1961.32 2574.519 L 1811.652 2576.22" transform="matrix(-1, 0, 0, -1, 3919.238892, 4899.023926)"></path>
  <circle class="circuit-end" cx="-2117.792" cy="-2164.632" r="32" transform="matrix(-1, 0, 0, -1, 0, 0)"></circle>
  <circle class="circuit-end" cx="-2108.438" cy="-2323.655" r="32" transform="matrix(-1, 0, 0, -1, 0, 0)"></circle>
  <circle class="circuit-end" cx="-2227.492" cy="-2320.253" r="32" transform="matrix(-1, 0, 0, -1, 0, 0)"></circle>
  <circle class="circuit-end" cx="-2227.492" cy="-2247.97" r="32" transform="matrix(-1, 0, 0, -1, 0, 0)"></circle>
  <circle class="circuit-end" cx="-2672.245" cy="-1992.004" r="32" transform="matrix(-1, 0, 0, -1, 0, 0)"></circle>
  <circle class="circuit-end" cx="-2724.118" cy="-2066.838" r="32" transform="matrix(-1, 0, 0, -1, 0, 0)"></circle>
  <path class="circuit" d="M 415.854 1601.886 L 615.986 1605.592 L 853.18 2019.445"></path>
  <path class="circuit" d="M 436.856 1763.721 L 520.862 1764.956 L 669.108 2015.739"></path>
  <path class="circuit" d="M 423.266 1687.127 L 576.453 1688.363 L 762.996 2007.091"></path>
  <circle class="circuit-end" cx="433.149" cy="1763.719" r="32"></circle>
  <circle class="circuit-end" cx="666.636" cy="2015.737" r="32"></circle>
  <circle class="circuit-end" cx="415.782" cy="1598.446" r="32"></circle>
  <circle class="circuit-end" cx="415.782" cy="1598.446" r="32" transform="matrix(1, 0, 0, 1, 436.984115, 416.898682)"></circle>
  <path d="M 825.861 1915.14 C 778.327 1915.14 729.454 1906.513 679.241 1889.26 C 629.021 1872.013 583.594 1844.99 542.961 1808.19 L 655.661 1672.49 C 682.494 1693.957 711.437 1711.397 742.491 1724.81 C 773.537 1738.23 802.861 1744.94 830.461 1744.94 C 860.361 1744.94 882.021 1740.34 895.441 1731.14 C 908.854 1721.94 915.561 1708.907 915.561 1692.04 C 915.561 1682.84 913.261 1675.173 908.661 1669.04 C 904.061 1662.907 897.354 1657.157 888.541 1651.79 C 879.721 1646.423 869.177 1641.247 856.911 1636.26 C 844.644 1631.28 830.461 1625.723 814.361 1619.59 L 721.211 1580.49 C 701.277 1572.823 682.111 1562.663 663.711 1550.01 C 645.311 1537.363 629.211 1522.413 615.411 1505.16 C 601.611 1487.913 590.687 1468.173 582.641 1445.94 C 574.587 1423.707 570.561 1399.173 570.561 1372.34 C 570.561 1340.14 577.461 1310.047 591.261 1282.06 C 605.061 1254.08 624.227 1229.547 648.761 1208.46 C 673.294 1187.38 702.621 1170.707 736.741 1158.44 C 770.854 1146.173 808.227 1140.04 848.861 1140.04 C 891.794 1140.04 935.304 1148.09 979.391 1164.19 C 1023.471 1180.29 1062.761 1205.59 1097.261 1240.09 L 998.361 1364.29 C 973.061 1346.657 948.721 1333.24 925.341 1324.04 C 901.954 1314.84 876.461 1310.24 848.861 1310.24 C 824.327 1310.24 805.161 1314.457 791.361 1322.89 C 777.561 1331.323 770.661 1343.973 770.661 1360.84 C 770.661 1378.473 780.437 1392.08 799.991 1401.66 C 819.537 1411.247 846.561 1422.557 881.061 1435.59 L 971.911 1471.24 C 1018.677 1489.64 1054.711 1515.323 1080.011 1548.29 C 1105.311 1581.257 1117.961 1623.807 1117.961 1675.94 C 1117.961 1707.373 1111.444 1737.657 1098.411 1766.79 C 1085.377 1795.923 1066.404 1821.413 1041.491 1843.26 C 1016.571 1865.113 986.094 1882.557 950.061 1895.59 C 914.027 1908.623 872.627 1915.14 825.861 1915.14 ZM 1762.847 1901.34 L 1268.347 1901.34 L 1268.347 1153.84 L 1751.347 1153.84 L 1751.347 1319.44 L 1466.147 1319.44 L 1466.147 1436.74 L 1709.947 1436.74 L 1709.947 1602.34 L 1466.147 1602.34 L 1466.147 1735.74 L 1762.847 1735.74 L 1762.847 1901.34 ZM 2262.833 1915.14 C 2215.3 1915.14 2169.877 1907.28 2126.563 1891.56 C 2083.243 1875.847 2045.293 1852.08 2012.713 1820.26 C 1980.127 1788.447 1954.25 1748.58 1935.083 1700.66 C 1915.917 1652.747 1906.333 1596.973 1906.333 1533.34 C 1906.333 1470.473 1916.3 1414.697 1936.233 1366.01 C 1956.167 1317.33 1982.81 1276.313 2016.163 1242.96 C 2049.51 1209.613 2087.843 1184.123 2131.163 1166.49 C 2174.477 1148.857 2219.9 1140.04 2267.433 1140.04 C 2317.267 1140.04 2361.733 1149.813 2400.833 1169.36 C 2439.933 1188.913 2472.9 1212.107 2499.733 1238.94 L 2396.233 1365.44 C 2377.833 1349.34 2358.86 1336.113 2339.313 1325.76 C 2319.76 1315.413 2297.333 1310.24 2272.033 1310.24 C 2249.8 1310.24 2228.91 1315.223 2209.363 1325.19 C 2189.81 1335.157 2172.56 1349.34 2157.613 1367.74 C 2142.66 1386.14 2130.777 1408.757 2121.963 1435.59 C 2113.143 1462.423 2108.733 1492.707 2108.733 1526.44 C 2108.733 1596.973 2123.493 1651.023 2153.013 1688.59 C 2182.527 1726.157 2221.433 1744.94 2269.733 1744.94 C 2298.867 1744.94 2324.743 1738.613 2347.363 1725.96 C 2369.977 1713.313 2389.333 1698.173 2405.433 1680.54 L 2508.933 1804.74 C 2476.733 1841.54 2439.743 1869.14 2397.963 1887.54 C 2356.177 1905.94 2311.133 1915.14 2262.833 1915.14 Z" style="fill: rgb(242, 42, 47); stroke: rgb(0, 0, 0); stroke-width: 24px; white-space: pre;"></path>
</svg>